<?xml version="1.0" encoding="utf-8"?><svg viewBox="0 0 502.66 502.66" xmlns="http://www.w3.org/2000/svg" xmlns:xlink="http://www.w3.org/1999/xlink"><style>:root>svg{display:none}:root>svg:target{display:block}</style><svg fill="none" viewBox="0 0 20 20" id="be" xmlns="http://www.w3.org/2000/svg"><g clip-path="url(#aa)"><path d="M18.333 5.833H12.5V4.166h5.833v1.667zm1.439 8.333c-.369 1.08-1.691 2.5-4.251 2.5-2.562 0-4.637-1.44-4.637-4.73 0-3.257 1.938-4.932 4.555-4.932 2.569 0 4.137 1.485 4.48 3.688.064.421.09.99.078 1.783h-6.689c.109 2.676 2.903 2.76 3.824 1.691h2.64zm-6.405-3.333h4.137c-.087-1.29-.947-1.85-2.064-1.85-1.222 0-1.897.64-2.073 1.85zm-7.979 5.823H0V4.184h5.794c4.564.067 4.65 4.536 2.267 5.755 2.884 1.05 2.98 6.717-2.673 6.717zM2.5 9.166h2.987c2.09 0 2.421-2.5-.26-2.5H2.5v2.5zm2.826 2.5H2.5v2.513h2.784c2.546 0 2.39-2.513.042-2.513z" fill="#7C7C7C"/></g><defs><clipPath id="aa"><path fill="#fff" d="M0 0h20v20H0z"/></clipPath></defs></svg><svg fill="none" viewBox="0 0 27 28" id="cursor" xmlns="http://www.w3.org/2000/svg"><path d="M20.66 14.507c-.83-.1-1.58.524-1.58 1.322v-.674c0-.673-.492-1.271-1.191-1.371-.83-.1-1.58.524-1.58 1.321v-.673c0-.673-.492-1.272-1.191-1.371-.83-.1-1.58.523-1.58 1.321V8.697c0-.723-.621-1.322-1.372-1.322-.751 0-1.373.599-1.373 1.322v10.249c0 .15-.207.2-.285.074-.517-.847-1.113-2.02-1.14-2.02a1.373 1.373 0 00-1.812-.598c-.673.324-.958 1.097-.621 1.746.052.075 1.243 2.394 2.356 3.94 1.425 1.945 2.668 2.892 3.29 3.291.62.424 1.242.649 1.656.649h3.496c.622 0 1.192-.3 1.528-.773l.648-.898c1.243-1.72 1.89-3.84 1.89-6.01v-2.469a1.288 1.288 0 00-1.14-1.37zm-8.495-8.904c.31 0 .544-.224.544-.524V2.885c0-.3-.233-.524-.544-.524-.31 0-.544.225-.544.524V5.08c0 .274.26.523.544.523zm-3.03.899a.583.583 0 00.776 0 .528.528 0 000-.748L8.28 4.208a.579.579 0 00-.777 0 .528.528 0 000 .748l1.632 1.546zm-.182 2.194c0-.3-.233-.524-.544-.524h-2.28c-.31 0-.543.224-.543.524 0 .299.233.523.544.523h2.279c.31 0 .544-.224.544-.523zm6.449 0c0 .299.233.523.544.523h2.28c.31 0 .543-.224.543-.523 0-.3-.233-.524-.544-.524h-2.279c-.31 0-.544.25-.544.524zm-.569-2.044a.58.58 0 00.388-.15l1.606-1.546a.528.528 0 000-.748.579.579 0 00-.777 0l-1.606 1.546a.528.528 0 000 .748c.13.1.26.15.389.15z" fill="#fff"/></svg><svg fill="none" viewBox="0 0 20 20" id="fb" xmlns="http://www.w3.org/2000/svg"><path d="M7.481 20v-9.385H5V7.237h2.481V4.35C7.481 2.083 8.947 0 12.325 0c1.367 0 2.379.131 2.379.131l-.08 3.155s-1.031-.01-2.157-.01c-1.218 0-1.413.562-1.413 1.493v2.468h3.667l-.16 3.378h-3.507V20H7.481z" fill="#7C7C7C"/></svg><svg viewBox="0 0 502.664 502.664" id="icon" xmlns="http://www.w3.org/2000/svg"><path d="M153.821 358.226L0 274.337v-46.463l153.821-83.414v54.574L46.636 250.523l107.185 53.431v54.272zm26.273 29.358L282.103 115.08h32.227L212.084 387.584h-31.99zm168.749-29.358v-54.272l107.164-52.999-107.164-52.59v-53.927l153.821 83.522v46.183l-153.821 84.083z" fill="#010002"/></svg><svg fill="none" viewBox="0 0 20 20" id="in" xmlns="http://www.w3.org/2000/svg"><g clip-path="url(#ea)"><path d="M9.999 6.745a3.261 3.261 0 00-3.255 3.254A3.261 3.261 0 0010 13.254a3.261 3.261 0 003.254-3.255A3.261 3.261 0 0010 6.745zm9.76 3.254c0-1.347.013-2.683-.063-4.028-.076-1.563-.432-2.95-1.575-4.092C16.976.734 15.592.38 14.03.304 12.681.23 11.346.241 10 .241c-1.347 0-2.683-.012-4.028.063C4.41.38 3.023.737 1.88 1.88.736 3.024.382 4.41.306 5.971.231 7.319.243 8.654.243 9.999c0 1.345-.012 2.683.063 4.029.076 1.562.433 2.949 1.575 4.091 1.145 1.145 2.53 1.5 4.092 1.575 1.348.076 2.683.064 4.028.064 1.348 0 2.683.012 4.029-.064 1.562-.076 2.949-.432 4.091-1.575 1.145-1.145 1.5-2.529 1.575-4.091.078-1.346.063-2.681.063-4.029zM10 15.007a5 5 0 01-5.01-5.008A5 5 0 0110 4.992a5 5 0 015.007 5.007A5 5 0 0110 15.007zm5.212-9.05a1.169 1.169 0 110-2.34 1.168 1.168 0 01.827 1.997 1.167 1.167 0 01-.827.342z" fill="#7C7C7C"/></g><defs><clipPath id="ea"><path fill="#fff" d="M0 0h20v20H0z"/></clipPath></defs></svg><svg fill="none" viewBox="0 0 20 20" id="ln" xmlns="http://www.w3.org/2000/svg"><path fill-rule="evenodd" clip-rule="evenodd" d="M7.859 7.474h3.095v1.541c.446-.886 1.589-1.683 3.306-1.683 3.293 0 4.075 1.765 4.075 5.003v5.998H15v-5.26c0-1.845-.445-2.885-1.58-2.885-1.575 0-2.229 1.121-2.229 2.884v5.26H7.86V7.475zM2.143 18.19h3.333V7.331H2.143v10.86zm3.81-14.4a2.108 2.108 0 01-.627 1.502 2.158 2.158 0 01-3.032 0 2.123 2.123 0 01-.626-1.502c0-.564.225-1.104.627-1.502a2.152 2.152 0 013.031 0c.402.398.628.938.628 1.502z" fill="#7C7C7C"/></svg><svg fill="none" viewBox="0 0 20 20" id="yt" xmlns="http://www.w3.org/2000/svg"><g clip-path="url(#ga)"><path d="M19.584 5.423a2.321 2.321 0 00-.639-1.058 2.542 2.542 0 00-1.114-.618c-1.566-.413-7.835-.413-7.835-.413a63.852 63.852 0 00-7.825.392 2.633 2.633 0 00-1.115.633 2.414 2.414 0 00-.649 1.064A24.242 24.242 0 00.001 10c-.01 1.534.125 3.067.406 4.578.114.4.337.763.646 1.058.31.294.694.506 1.118.619 1.585.412 7.825.412 7.825.412 2.617.03 5.233-.101 7.835-.392a2.543 2.543 0 001.114-.618c.305-.289.525-.655.638-1.059.288-1.509.427-3.043.418-4.579a22.147 22.147 0 00-.417-4.597zM8.002 12.854V7.148l5.217 2.854-5.217 2.852z" fill="#7C7C7C"/></g><defs><clipPath id="ga"><path fill="#fff" d="M0 0h20v20H0z"/></clipPath></defs></svg></svg>