<svg width="20" height="20" viewBox="0 0 20 20" fill="none" xmlns="http://www.w3.org/2000/svg">
<path fill-rule="evenodd" clip-rule="evenodd" d="M7.8588 7.47352H10.9538V9.01518C11.3996 8.12852 12.543 7.33185 14.2605 7.33185C17.553 7.33185 18.3346 9.09685 18.3346 12.3352V18.3327H15.0013V13.0727C15.0013 11.2285 14.5555 10.1885 13.4205 10.1885C11.8463 10.1885 11.1921 11.3093 11.1921 13.0718V18.3327H7.8588V7.47352ZM2.14297 18.191H5.4763V7.33185H2.14297V18.191ZM5.9538 3.79102C5.95393 4.07041 5.89852 4.34704 5.79079 4.60484C5.68307 4.86263 5.52518 5.09644 5.3263 5.29268C4.9233 5.6932 4.37781 5.91739 3.80964 5.91602C3.24246 5.91563 2.69823 5.69201 2.29464 5.29352C2.09648 5.09661 1.93912 4.86254 1.83159 4.60471C1.72405 4.34688 1.66845 4.07037 1.66797 3.79102C1.66797 3.22685 1.89297 2.68685 2.29547 2.28852C2.69871 1.88948 3.24317 1.66577 3.81047 1.66602C4.3788 1.66602 4.9238 1.89018 5.3263 2.28852C5.72797 2.68685 5.9538 3.22685 5.9538 3.79102Z" fill="#7C7C7C"/>
</svg>
